<?xml version="1.0" encoding="UTF-8"?>
<svg xmlns="http://www.w3.org/2000/svg" xmlns:xlink="http://www.w3.org/1999/xlink" width="854" height="480" viewBox="0 0 854 480">
<defs>
<g>
<g id="glyph-0-0">
<path d="M 0.078125 1.0625 L 0.078125 0.875 L 0.109375 0.875 C 0.210938 0.875 0.300781 0.851562 0.375 0.8125 C 0.445312 0.78125 0.484375 0.695312 0.484375 0.5625 L 0.484375 -1.890625 C 0.484375 -2.015625 0.445312 -2.09375 0.375 -2.125 C 0.300781 -2.164062 0.210938 -2.1875 0.109375 -2.1875 L 0.0625 -2.1875 L 0.0625 -2.375 L 0.828125 -2.375 L 0.875 -1.984375 L 0.890625 -1.984375 C 0.960938 -2.117188 1.050781 -2.222656 1.15625 -2.296875 C 1.257812 -2.378906 1.398438 -2.421875 1.578125 -2.421875 C 1.867188 -2.421875 2.09375 -2.320312 2.25 -2.125 C 2.40625 -1.925781 2.484375 -1.613281 2.484375 -1.1875 C 2.484375 -0.757812 2.40625 -0.445312 2.25 -0.25 C 2.09375 -0.0507812 1.867188 0.046875 1.578125 0.046875 C 1.398438 0.046875 1.257812 0.0078125 1.15625 -0.0625 C 1.050781 -0.132812 0.960938 -0.226562 0.890625 -0.34375 L 0.875 -0.34375 C 0.882812 -0.257812 0.890625 -0.164062 0.890625 -0.0625 C 0.890625 0.03125 0.890625 0.101562 0.890625 0.15625 L 0.890625 0.578125 C 0.890625 0.710938 0.925781 0.796875 1 0.828125 C 1.070312 0.859375 1.160156 0.875 1.265625 0.875 L 1.28125 0.875 L 1.28125 1.0625 Z M 1.5 -0.234375 C 1.695312 -0.234375 1.835938 -0.316406 1.921875 -0.484375 C 2.003906 -0.648438 2.046875 -0.890625 2.046875 -1.203125 C 2.046875 -1.515625 2.003906 -1.75 1.921875 -1.90625 C 1.835938 -2.0625 1.695312 -2.140625 1.5 -2.140625 C 1.269531 -2.140625 1.109375 -2.0625 1.015625 -1.90625 C 0.929688 -1.75 0.890625 -1.507812 0.890625 -1.1875 C 0.890625 -0.882812 0.929688 -0.648438 1.015625 -0.484375 C 1.109375 -0.316406 1.269531 -0.234375 1.5 -0.234375 Z "/>
</g>
<g id="glyph-0-1">
</g>
<g id="glyph-0-2">
<path d="M 0.28125 -1.890625 L 0.28125 -2.15625 L 2.1875 -2.15625 L 2.1875 -1.890625 Z M 0.28125 -1.015625 L 0.28125 -1.28125 L 2.1875 -1.28125 L 2.1875 -1.015625 Z "/>
</g>
</g>
</defs>
<g fill="rgb(58.039216%, 63.921569%, 72.156863%)" fill-opacity="1">
<use xlink:href="#glyph-0-0" x="30" y="24.750977"/>
<use xlink:href="#glyph-0-1" x="33" y="24.750977"/>
<use xlink:href="#glyph-0-2" x="34" y="24.750977"/>
</g>
</svg>
